TITLE ""
FILE "2Q_t_0435-0452.mp3" MP3
  TRACK 01 AUDIO
    TITLE "2Q_t_0435-0452_01"
    INDEX 01 00:00:00
  TRACK 02 AUDIO
    TITLE "2Q_t_0435-0452_02"
    INDEX 01 00:00:08
  TRACK 03 AUDIO
    TITLE "2Q_t_0435-0452_03"
    INDEX 01 00:01:22
  TRACK 04 AUDIO
    TITLE "2Q_t_0435-0452_04"
    INDEX 01 00:01:65
  TRACK 05 AUDIO
    TITLE "2Q_t_0435-0452_05"
    INDEX 01 00:03:26
  TRACK 06 AUDIO
    TITLE "2Q_t_0435-0452_06"
    INDEX 01 00:03:69
  TRACK 07 AUDIO
    TITLE "2Q_t_0435-0452_07"
    INDEX 01 00:04:71
  TRACK 08 AUDIO
    TITLE "2Q_t_0435-0452_08"
    INDEX 01 00:05:45
  TRACK 09 AUDIO
    TITLE "2Q_t_0435-0452_09"
    INDEX 01 00:07:42
  TRACK 10 AUDIO
    TITLE "2Q_t_0435-0452_10"
    INDEX 01 00:08:10
  TRACK 11 AUDIO
    TITLE "2Q_t_0435-0452_11"
    INDEX 01 00:09:31
  TRACK 12 AUDIO
    TITLE "2Q_t_0435-0452_12"
    INDEX 01 00:10:01
  TRACK 13 AUDIO
    TITLE "2Q_t_0435-0452_13"
    INDEX 01 00:12:70
  TRACK 14 AUDIO
    TITLE "2Q_t_0435-0452_14"
    INDEX 01 00:13:42
  TRACK 15 AUDIO
    TITLE "2Q_t_0435-0452_15"
    INDEX 01 00:14:71
  TRACK 16 AUDIO
    TITLE "2Q_t_0435-0452_16"
    INDEX 01 00:15:51
  TRACK 17 AUDIO
    TITLE "2Q_t_0435-0452_17"
    INDEX 01 00:18:40
  TRACK 18 AUDIO
    TITLE "2Q_t_0435-0452_18"
    INDEX 01 00:19:08
  TRACK 19 AUDIO
    TITLE "2Q_t_0435-0452_19"
    INDEX 01 00:20:05
  TRACK 20 AUDIO
    TITLE "2Q_t_0435-0452_20"
    INDEX 01 00:20:56
  TRACK 21 AUDIO
    TITLE "2Q_t_0435-0452_21"
    INDEX 01 00:22:69
  TRACK 22 AUDIO
    TITLE "2Q_t_0435-0452_22"
    INDEX 01 00:23:39
  TRACK 23 AUDIO
    TITLE "2Q_t_0435-0452_23"
    INDEX 01 00:24:54
  TRACK 24 AUDIO
    TITLE "2Q_t_0435-0452_24"
    INDEX 01 00:25:26
  TRACK 25 AUDIO
    TITLE "2Q_t_0435-0452_25"
    INDEX 01 00:27:42
  TRACK 26 AUDIO
    TITLE "2Q_t_0435-0452_26"
    INDEX 01 00:28:13
  TRACK 27 AUDIO
    TITLE "2Q_t_0435-0452_27"
    INDEX 01 00:28:73
  TRACK 28 AUDIO
    TITLE "2Q_t_0435-0452_28"
    INDEX 01 00:29:57
  TRACK 29 AUDIO
    TITLE "2Q_t_0435-0452_29"
    INDEX 01 00:32:26
  TRACK 30 AUDIO
    TITLE "2Q_t_0435-0452_30"
    INDEX 01 00:32:71
  TRACK 31 AUDIO
    TITLE "2Q_t_0435-0452_31"
    INDEX 01 00:34:23
  TRACK 32 AUDIO
    TITLE "2Q_t_0435-0452_32"
    INDEX 01 00:34:72
  TRACK 33 AUDIO
    TITLE "2Q_t_0435-0452_33"
    INDEX 01 00:41:46
  TRACK 34 AUDIO
    TITLE "2Q_t_0435-0452_34"
    INDEX 01 00:42:19
  TRACK 35 AUDIO
    TITLE "2Q_t_0435-0452_35"
    INDEX 01 00:43:40
  TRACK 36 AUDIO
    TITLE "2Q_t_0435-0452_36"
    INDEX 01 00:44:12
  TRACK 37 AUDIO
    TITLE "2Q_t_0435-0452_37"
    INDEX 01 00:46:67
  TRACK 38 AUDIO
    TITLE "2Q_t_0435-0452_38"
    INDEX 01 00:47:37
  TRACK 39 AUDIO
    TITLE "2Q_t_0435-0452_39"
    INDEX 01 00:48:43
  TRACK 40 AUDIO
    TITLE "2Q_t_0435-0452_40"
    INDEX 01 00:49:15
  TRACK 41 AUDIO
    TITLE "2Q_t_0435-0452_41"
    INDEX 01 00:50:12
  TRACK 42 AUDIO
    TITLE "2Q_t_0435-0452_42"
    INDEX 01 00:50:57
  TRACK 43 AUDIO
    TITLE "2Q_t_0435-0452_43"
    INDEX 01 00:52:03
  TRACK 44 AUDIO
    TITLE "2Q_t_0435-0452_44"
    INDEX 01 00:52:50
  TRACK 45 AUDIO
    TITLE "2Q_t_0435-0452_45"
    INDEX 01 00:53:57
  TRACK 46 AUDIO
    TITLE "2Q_t_0435-0452_46"
    INDEX 01 00:54:26
  TRACK 47 AUDIO
    TITLE "2Q_t_0435-0452_47"
    INDEX 01 00:55:49
  TRACK 48 AUDIO
    TITLE "2Q_t_0435-0452_48"
    INDEX 01 00:56:25
  TRACK 49 AUDIO
    TITLE "2Q_t_0435-0452_49"
    INDEX 01 00:57:38
  TRACK 50 AUDIO
    TITLE "2Q_t_0435-0452_50"
    INDEX 01 00:58:08
  TRACK 51 AUDIO
    TITLE "2Q_t_0435-0452_51"
    INDEX 01 00:59:11
  TRACK 52 AUDIO
    TITLE "2Q_t_0435-0452_52"
    INDEX 01 00:59:58
  TRACK 53 AUDIO
    TITLE "2Q_t_0435-0452_53"
    INDEX 01 01:01:06
  TRACK 54 AUDIO
    TITLE "2Q_t_0435-0452_54"
    INDEX 01 01:01:49
  TRACK 55 AUDIO
    TITLE "2Q_t_0435-0452_55"
    INDEX 01 01:02:49
  TRACK 56 AUDIO
    TITLE "2Q_t_0435-0452_56"
    INDEX 01 01:03:23
  TRACK 57 AUDIO
    TITLE "2Q_t_0435-0452_57"
    INDEX 01 01:05:27
  TRACK 58 AUDIO
    TITLE "2Q_t_0435-0452_58"
    INDEX 01 01:05:74
  TRACK 59 AUDIO
    TITLE "2Q_t_0435-0452_59"
    INDEX 01 01:07:07
  TRACK 60 AUDIO
    TITLE "2Q_t_0435-0452_60"
    INDEX 01 01:07:56
  TRACK 61 AUDIO
    TITLE "2Q_t_0435-0452_61"
    INDEX 01 01:09:62
  TRACK 62 AUDIO
    TITLE "2Q_t_0435-0452_62"
    INDEX 01 01:10:32
  TRACK 63 AUDIO
    TITLE "2Q_t_0435-0452_63"
    INDEX 01 01:11:52
  TRACK 64 AUDIO
    TITLE "2Q_t_0435-0452_64"
    INDEX 01 01:12:22
  TRACK 65 AUDIO
    TITLE "2Q_t_0435-0452_65"
    INDEX 01 01:14:44
  TRACK 66 AUDIO
    TITLE "2Q_t_0435-0452_66"
    INDEX 01 01:15:12
  TRACK 67 AUDIO
    TITLE "2Q_t_0435-0452_67"
    INDEX 01 01:16:19
  TRACK 68 AUDIO
    TITLE "2Q_t_0435-0452_68"
    INDEX 01 01:16:66
  TRACK 69 AUDIO
    TITLE "2Q_t_0435-0452_69"
    INDEX 01 01:17:52
  TRACK 70 AUDIO
    TITLE "2Q_t_0435-0452_70"
    INDEX 01 01:18:22
  TRACK 71 AUDIO
    TITLE "2Q_t_0435-0452_71"
    INDEX 01 01:20:01
  TRACK 72 AUDIO
    TITLE "2Q_t_0435-0452_72"
    INDEX 01 01:20:54
  TRACK 73 AUDIO
    TITLE "2Q_t_0435-0452_73"
    INDEX 01 01:22:22
